G04*
G04 #@! TF.GenerationSoftware,Altium Limited,Altium Designer,20.0.13 (296)*
G04*
G04 Layer_Physical_Order=2*
G04 Layer_Color=16711680*
%FSLAX25Y25*%
%MOIN*%
G70*
G01*
G75*
%ADD20C,0.03543*%
%ADD21C,0.05606*%
%ADD22R,0.11811X0.11811*%
%ADD23C,0.11811*%
%ADD24C,0.06000*%
%ADD25R,0.11811X0.11811*%
%ADD26C,0.07874*%
%ADD27C,0.03937*%
%ADD28C,0.03150*%
D20*
X181890Y7874D02*
D03*
X98425D02*
D03*
D21*
X66929Y70866D02*
D03*
Y24016D02*
D03*
X46850Y70866D02*
D03*
Y24016D02*
D03*
D22*
X15748Y263780D02*
D03*
X116299Y259843D02*
D03*
D23*
X51181Y263780D02*
D03*
X15748Y200787D02*
D03*
X171417Y259843D02*
D03*
D24*
X47244Y114173D02*
D03*
X94488D02*
D03*
X70866Y106299D02*
D03*
X47244Y162205D02*
D03*
X94488D02*
D03*
X120473Y51181D02*
D03*
X181103D02*
D03*
X140945Y166929D02*
D03*
X160630D02*
D03*
D25*
X15748Y169291D02*
D03*
D26*
X70866Y106299D02*
Y125984D01*
X59055Y137795D02*
X70866Y125984D01*
X20361Y137795D02*
X59055D01*
X15748Y142408D02*
Y169291D01*
Y142408D02*
X20361Y137795D01*
X15748Y200787D02*
Y263780D01*
X15748Y263780D02*
X15748Y263780D01*
X51181Y236221D02*
Y263779D01*
X93943Y162750D02*
Y193459D01*
X51181Y236221D02*
X93943Y193459D01*
X51181Y263780D02*
X51181Y263779D01*
X93943Y162750D02*
X94488Y162205D01*
X116299Y191575D02*
Y259843D01*
Y191575D02*
X140945Y166929D01*
X160630D02*
X171417Y177717D01*
Y259843D01*
D27*
X46850Y70866D02*
X47244Y71260D01*
Y114173D01*
X94488Y114173D02*
X94488Y114173D01*
X94488Y78740D02*
Y114173D01*
X86614Y70866D02*
X94488Y78740D01*
X66929Y70866D02*
X86614D01*
X46850Y55512D02*
Y70866D01*
X66929Y24016D02*
Y35433D01*
X46850Y55512D02*
X66929Y35433D01*
X120473Y29921D02*
Y51181D01*
X114567Y24016D02*
X120473Y29921D01*
X66929Y24016D02*
X114567D01*
X46850Y12205D02*
Y24016D01*
Y12205D02*
X51181Y7874D01*
X98425D01*
X181890D02*
Y49622D01*
D28*
X181103Y50410D02*
X181890Y49622D01*
X181103Y50410D02*
Y51181D01*
M02*
