G04*
G04 #@! TF.GenerationSoftware,Altium Limited,Altium Designer,20.0.13 (296)*
G04*
G04 Layer_Color=65535*
%FSLAX25Y25*%
%MOIN*%
G70*
G01*
G75*
%ADD10C,0.01575*%
%ADD11C,0.01000*%
%ADD12C,0.00787*%
%ADD13C,0.00394*%
D10*
X-0Y275590D02*
X0Y0D01*
X196850D01*
Y275590D01*
X0D02*
X196850D01*
D11*
X167716Y7874D02*
X179528D01*
X100787D02*
X112598D01*
X167716Y6693D02*
Y9055D01*
X112598Y6693D02*
X167716D01*
X112598D02*
Y9055D01*
X167716D01*
X78347Y30315D02*
Y65748D01*
X38976D02*
X78347D01*
X38976Y30315D02*
Y65748D01*
Y30315D02*
X78347D01*
X111969Y41575D02*
X190709D01*
Y175433D01*
X190157Y175984D02*
X190709Y175433D01*
X111642Y175984D02*
X190157D01*
X111642Y42126D02*
Y175984D01*
X102362Y271654D02*
X106299D01*
X102362Y251969D02*
Y271654D01*
Y251969D02*
X181103D01*
Y271654D01*
X106299D02*
X181103D01*
X119234Y13616D02*
Y18733D01*
X121792D01*
X122645Y17880D01*
Y16174D01*
X121792Y15322D01*
X119234D01*
X120940D02*
X122645Y13616D01*
X126909D02*
X125204D01*
X124351Y14469D01*
Y16174D01*
X125204Y17027D01*
X126909D01*
X127762Y16174D01*
Y15322D01*
X124351D01*
X132025Y13616D02*
X130320D01*
X129467Y14469D01*
Y16174D01*
X130320Y17027D01*
X132025D01*
X132878Y16174D01*
Y15322D01*
X129467D01*
X137995Y18733D02*
Y13616D01*
X135436D01*
X134584Y14469D01*
Y16174D01*
X135436Y17027D01*
X137995D01*
X139700Y12763D02*
X143111D01*
X148228Y17880D02*
X147375Y18733D01*
X145669D01*
X144817Y17880D01*
Y17027D01*
X145669Y16174D01*
X147375D01*
X148228Y15322D01*
Y14469D01*
X147375Y13616D01*
X145669D01*
X144817Y14469D01*
X149933Y17027D02*
Y14469D01*
X150786Y13616D01*
X151638Y14469D01*
X152491Y13616D01*
X153344Y14469D01*
Y17027D01*
X155050Y13616D02*
X156755D01*
X155902D01*
Y17027D01*
X155050D01*
X160166Y17880D02*
Y17027D01*
X159313D01*
X161019D01*
X160166D01*
Y14469D01*
X161019Y13616D01*
X166988Y17027D02*
X164430D01*
X163577Y16174D01*
Y14469D01*
X164430Y13616D01*
X166988D01*
X168693Y18733D02*
Y13616D01*
Y16174D01*
X169546Y17027D01*
X171252D01*
X172104Y16174D01*
Y13616D01*
X25591Y28287D02*
Y30911D01*
Y29599D01*
X29527D01*
Y32223D02*
Y33535D01*
Y32879D01*
X26903D01*
Y32223D01*
X29527Y35503D02*
Y36815D01*
Y36159D01*
X25591D01*
Y35503D01*
X26247Y39438D02*
X26903D01*
Y38782D01*
Y40094D01*
Y39438D01*
X28871D01*
X29527Y40094D01*
X27559Y42062D02*
Y44686D01*
X26247Y48622D02*
X25591Y47966D01*
Y46654D01*
X26247Y45998D01*
X26903D01*
X27559Y46654D01*
Y47966D01*
X28215Y48622D01*
X28871D01*
X29527Y47966D01*
Y46654D01*
X28871Y45998D01*
X26903Y49934D02*
X28871D01*
X29527Y50590D01*
X28871Y51246D01*
X29527Y51902D01*
X28871Y52557D01*
X26903D01*
X29527Y53869D02*
Y55181D01*
Y54525D01*
X26903D01*
Y53869D01*
X26247Y57805D02*
X26903D01*
Y57149D01*
Y58461D01*
Y57805D01*
X28871D01*
X29527Y58461D01*
X26903Y63053D02*
Y61085D01*
X27559Y60429D01*
X28871D01*
X29527Y61085D01*
Y63053D01*
X25591Y64365D02*
X29527D01*
X27559D01*
X26903Y65021D01*
Y66333D01*
X27559Y66989D01*
X29527D01*
X24939Y246064D02*
X22315D01*
X24939Y248687D01*
Y249343D01*
X24283Y249999D01*
X22971D01*
X22315Y249343D01*
X28219Y246064D02*
Y249999D01*
X26251Y248031D01*
X28875D01*
X30187Y249343D02*
X30843Y249999D01*
X32155D01*
X32811Y249343D01*
Y246720D01*
X32155Y246064D01*
X30843D01*
X30187Y246720D01*
Y249343D01*
X34122Y246064D02*
Y248687D01*
X35434Y249999D01*
X36746Y248687D01*
Y246064D01*
Y248031D01*
X34122D01*
X40682Y249343D02*
X40026Y249999D01*
X38714D01*
X38058Y249343D01*
Y246720D01*
X38714Y246064D01*
X40026D01*
X40682Y246720D01*
X41994Y248031D02*
X44618D01*
X47897Y249999D02*
X46586D01*
X45930Y249343D01*
Y246720D01*
X46586Y246064D01*
X47897D01*
X48553Y246720D01*
Y249343D01*
X47897Y249999D01*
X49865Y246064D02*
X52489Y248687D01*
X53801Y246064D02*
Y249999D01*
X55769D01*
X56425Y249343D01*
Y248031D01*
X55769Y247375D01*
X53801D01*
X33495Y124300D02*
X27497D01*
Y127299D01*
X28497Y128298D01*
X30496D01*
X31496Y127299D01*
Y124300D01*
Y126299D02*
X33495Y128298D01*
Y133297D02*
Y131297D01*
X32496Y130298D01*
X30496D01*
X29497Y131297D01*
Y133297D01*
X30496Y134296D01*
X31496D01*
Y130298D01*
X33495Y136296D02*
Y138295D01*
Y137295D01*
X27497D01*
Y136296D01*
X29497Y142294D02*
Y144293D01*
X30496Y145293D01*
X33495D01*
Y142294D01*
X32496Y141294D01*
X31496Y142294D01*
Y145293D01*
X29497Y147292D02*
X32496D01*
X33495Y148292D01*
Y151291D01*
X34495D01*
X35495Y150291D01*
Y149292D01*
X33495Y151291D02*
X29497D01*
X28497Y178856D02*
X34495D01*
Y181855D01*
X33495Y182855D01*
X32496D01*
X31496Y181855D01*
Y178856D01*
Y181855D01*
X30496Y182855D01*
X29497D01*
X28497Y181855D01*
Y178856D01*
X30496Y185854D02*
Y187853D01*
X31496Y188853D01*
X34495D01*
Y185854D01*
X33495Y184854D01*
X32496Y185854D01*
Y188853D01*
X34495Y190852D02*
Y192852D01*
Y191852D01*
X28497D01*
Y190852D01*
X34495Y195851D02*
Y197850D01*
Y196850D01*
X28497D01*
Y195851D01*
X30496Y201849D02*
Y203848D01*
X31496Y204848D01*
X34495D01*
Y201849D01*
X33495Y200849D01*
X32496Y201849D01*
Y204848D01*
X34495Y206847D02*
Y209846D01*
X33495Y210846D01*
X32496Y209846D01*
Y207847D01*
X31496Y206847D01*
X30496Y207847D01*
Y210846D01*
X29497Y213845D02*
X30496D01*
Y212845D01*
Y214844D01*
Y213845D01*
X33495D01*
X34495Y214844D01*
X122553Y113235D02*
X126552D01*
X124553D01*
Y107237D01*
X128551Y111236D02*
Y107237D01*
Y109237D01*
X129551Y110236D01*
X130551Y111236D01*
X131550D01*
X135549D02*
X137548D01*
X138548Y110236D01*
Y107237D01*
X135549D01*
X134549Y108237D01*
X135549Y109237D01*
X138548D01*
X140548Y107237D02*
Y111236D01*
X143547D01*
X144546Y110236D01*
Y107237D01*
X146546D02*
X149545D01*
X150544Y108237D01*
X149545Y109237D01*
X147545D01*
X146546Y110236D01*
X147545Y111236D01*
X150544D01*
X153543Y107237D02*
Y112236D01*
Y110236D01*
X152544D01*
X154543D01*
X153543D01*
Y112236D01*
X154543Y113235D01*
X158542Y107237D02*
X160541D01*
X161541Y108237D01*
Y110236D01*
X160541Y111236D01*
X158542D01*
X157542Y110236D01*
Y108237D01*
X158542Y107237D01*
X163540Y111236D02*
Y107237D01*
Y109237D01*
X164540Y110236D01*
X165539Y111236D01*
X166539D01*
X169538Y107237D02*
Y111236D01*
X170538D01*
X171537Y110236D01*
Y107237D01*
Y110236D01*
X172537Y111236D01*
X173537Y110236D01*
Y107237D01*
X178535D02*
X176536D01*
X175536Y108237D01*
Y110236D01*
X176536Y111236D01*
X178535D01*
X179535Y110236D01*
Y109237D01*
X175536D01*
X181534Y111236D02*
Y107237D01*
Y109237D01*
X182534Y110236D01*
X183534Y111236D01*
X184533D01*
X129755Y257875D02*
X127131D01*
X129755Y260498D01*
Y261154D01*
X129099Y261810D01*
X127787D01*
X127131Y261154D01*
X133035Y257875D02*
Y261810D01*
X131067Y259842D01*
X133691D01*
X135003Y261154D02*
X135659Y261810D01*
X136971D01*
X137627Y261154D01*
Y258531D01*
X136971Y257875D01*
X135659D01*
X135003Y258531D01*
Y261154D01*
X138939Y257875D02*
Y260498D01*
X140251Y261810D01*
X141562Y260498D01*
Y257875D01*
Y259842D01*
X138939D01*
X145498Y261154D02*
X144842Y261810D01*
X143530D01*
X142874Y261154D01*
Y258531D01*
X143530Y257875D01*
X144842D01*
X145498Y258531D01*
X146810Y259842D02*
X149434D01*
X150746Y261810D02*
X152058D01*
X151402D01*
Y257875D01*
X150746D01*
X152058D01*
X154026D02*
X156649Y260498D01*
X157961Y257875D02*
Y261810D01*
X159929D01*
X160585Y261154D01*
Y259842D01*
X159929Y259187D01*
X157961D01*
D12*
X62992Y255906D02*
Y271654D01*
X3937Y255906D02*
X62992D01*
X3937D02*
Y271654D01*
X62992D01*
X7874Y208662D02*
X23622D01*
Y157480D02*
Y208662D01*
X7874Y157480D02*
X23622D01*
X7874D02*
Y208662D01*
D13*
X40067Y102173D02*
Y177803D01*
X99988D01*
X40067Y102173D02*
X99988D01*
Y177803D01*
M02*
